<mxfile host="app.diagrams.net" modified="2020-08-20T04:44:46.995Z" agent="5.0 (Windows NT 10.0; Win64; x64) AppleWebKit/537.36 (KHTML, like Gecko) Chrome/84.0.4147.105 Safari/537.36" etag="cjh2FlgUGK1i9xzxfWEN" version="13.6.3" type="github">
  <diagram id="GddMbnfEARlghtjR7apO" name="Page-1">
    <mxGraphModel dx="2272" dy="1862" grid="1" gridSize="10" guides="1" tooltips="1" connect="1" arrows="1" fold="1" page="1" pageScale="1" pageWidth="850" pageHeight="1100" math="0" shadow="0">
      <root>
        <mxCell id="0" />
        <mxCell id="1" parent="0" />
        <mxCell id="nJjuqN-97N6K5tzZ3BX6-3" value="" style="edgeStyle=orthogonalEdgeStyle;rounded=0;orthogonalLoop=1;jettySize=auto;html=1;" edge="1" parent="1" source="nJjuqN-97N6K5tzZ3BX6-1" target="nJjuqN-97N6K5tzZ3BX6-2">
          <mxGeometry relative="1" as="geometry" />
        </mxCell>
        <mxCell id="nJjuqN-97N6K5tzZ3BX6-1" value="" style="rounded=1;whiteSpace=wrap;html=1;fillColor=#CC0066;" vertex="1" parent="1">
          <mxGeometry x="120" y="110" width="210" height="70" as="geometry" />
        </mxCell>
        <mxCell id="nJjuqN-97N6K5tzZ3BX6-5" style="edgeStyle=orthogonalEdgeStyle;rounded=0;orthogonalLoop=1;jettySize=auto;html=1;exitX=0.5;exitY=1;exitDx=0;exitDy=0;entryX=0.5;entryY=0;entryDx=0;entryDy=0;" edge="1" parent="1" source="nJjuqN-97N6K5tzZ3BX6-2" target="nJjuqN-97N6K5tzZ3BX6-4">
          <mxGeometry relative="1" as="geometry" />
        </mxCell>
        <mxCell id="nJjuqN-97N6K5tzZ3BX6-2" value="" style="shape=parallelogram;perimeter=parallelogramPerimeter;whiteSpace=wrap;html=1;fixedSize=1;strokeColor=#d6b656;fillColor=#C79350;" vertex="1" parent="1">
          <mxGeometry x="370" y="80" width="260" height="130" as="geometry" />
        </mxCell>
        <mxCell id="nJjuqN-97N6K5tzZ3BX6-8" value="" style="edgeStyle=orthogonalEdgeStyle;rounded=0;orthogonalLoop=1;jettySize=auto;html=1;" edge="1" parent="1" source="nJjuqN-97N6K5tzZ3BX6-4" target="nJjuqN-97N6K5tzZ3BX6-7">
          <mxGeometry relative="1" as="geometry" />
        </mxCell>
        <mxCell id="nJjuqN-97N6K5tzZ3BX6-15" value="" style="edgeStyle=orthogonalEdgeStyle;rounded=0;orthogonalLoop=1;jettySize=auto;html=1;" edge="1" parent="1" source="nJjuqN-97N6K5tzZ3BX6-4" target="nJjuqN-97N6K5tzZ3BX6-14">
          <mxGeometry relative="1" as="geometry" />
        </mxCell>
        <mxCell id="nJjuqN-97N6K5tzZ3BX6-4" value="" style="rounded=0;whiteSpace=wrap;html=1;fillColor=#007FFF;" vertex="1" parent="1">
          <mxGeometry x="410" y="260" width="180" height="70" as="geometry" />
        </mxCell>
        <mxCell id="nJjuqN-97N6K5tzZ3BX6-22" value="" style="edgeStyle=orthogonalEdgeStyle;rounded=0;orthogonalLoop=1;jettySize=auto;html=1;" edge="1" parent="1" source="nJjuqN-97N6K5tzZ3BX6-7" target="nJjuqN-97N6K5tzZ3BX6-21">
          <mxGeometry relative="1" as="geometry" />
        </mxCell>
        <mxCell id="nJjuqN-97N6K5tzZ3BX6-48" style="edgeStyle=orthogonalEdgeStyle;rounded=0;orthogonalLoop=1;jettySize=auto;html=1;exitX=0.5;exitY=1;exitDx=0;exitDy=0;entryX=0.5;entryY=0;entryDx=0;entryDy=0;" edge="1" parent="1" source="nJjuqN-97N6K5tzZ3BX6-7" target="nJjuqN-97N6K5tzZ3BX6-47">
          <mxGeometry relative="1" as="geometry" />
        </mxCell>
        <mxCell id="nJjuqN-97N6K5tzZ3BX6-7" value="" style="rounded=0;whiteSpace=wrap;html=1;fillColor=#007FFF;" vertex="1" parent="1">
          <mxGeometry x="410" y="567" width="180" height="70" as="geometry" />
        </mxCell>
        <mxCell id="nJjuqN-97N6K5tzZ3BX6-10" value="" style="endArrow=none;html=1;entryX=0;entryY=0.5;entryDx=0;entryDy=0;exitX=0;exitY=0.5;exitDx=0;exitDy=0;rounded=0;" edge="1" parent="1" source="nJjuqN-97N6K5tzZ3BX6-7" target="nJjuqN-97N6K5tzZ3BX6-4">
          <mxGeometry width="50" height="50" relative="1" as="geometry">
            <mxPoint x="400" y="420" as="sourcePoint" />
            <mxPoint x="450" y="370" as="targetPoint" />
            <Array as="points">
              <mxPoint x="360" y="602" />
              <mxPoint x="360" y="295" />
            </Array>
          </mxGeometry>
        </mxCell>
        <mxCell id="nJjuqN-97N6K5tzZ3BX6-26" style="edgeStyle=orthogonalEdgeStyle;rounded=0;orthogonalLoop=1;jettySize=auto;html=1;entryX=0;entryY=0.5;entryDx=0;entryDy=0;" edge="1" parent="1" source="nJjuqN-97N6K5tzZ3BX6-11" target="nJjuqN-97N6K5tzZ3BX6-24">
          <mxGeometry relative="1" as="geometry">
            <Array as="points">
              <mxPoint x="50" y="397" />
              <mxPoint x="50" y="-30" />
            </Array>
          </mxGeometry>
        </mxCell>
        <mxCell id="nJjuqN-97N6K5tzZ3BX6-11" value="" style="rounded=0;whiteSpace=wrap;html=1;fillColor=#007FFF;" vertex="1" parent="1">
          <mxGeometry x="120" y="362" width="180" height="70" as="geometry" />
        </mxCell>
        <mxCell id="nJjuqN-97N6K5tzZ3BX6-13" value="" style="endArrow=classic;html=1;" edge="1" parent="1">
          <mxGeometry width="50" height="50" relative="1" as="geometry">
            <mxPoint x="360" y="400" as="sourcePoint" />
            <mxPoint x="300" y="400" as="targetPoint" />
          </mxGeometry>
        </mxCell>
        <mxCell id="nJjuqN-97N6K5tzZ3BX6-17" value="" style="edgeStyle=orthogonalEdgeStyle;rounded=0;orthogonalLoop=1;jettySize=auto;html=1;" edge="1" parent="1" source="nJjuqN-97N6K5tzZ3BX6-14" target="nJjuqN-97N6K5tzZ3BX6-16">
          <mxGeometry relative="1" as="geometry" />
        </mxCell>
        <mxCell id="nJjuqN-97N6K5tzZ3BX6-20" value="" style="edgeStyle=orthogonalEdgeStyle;rounded=0;orthogonalLoop=1;jettySize=auto;html=1;" edge="1" parent="1" source="nJjuqN-97N6K5tzZ3BX6-14" target="nJjuqN-97N6K5tzZ3BX6-18">
          <mxGeometry relative="1" as="geometry" />
        </mxCell>
        <mxCell id="nJjuqN-97N6K5tzZ3BX6-14" value="" style="rhombus;whiteSpace=wrap;html=1;fillColor=#CC0066;" vertex="1" parent="1">
          <mxGeometry x="630" y="228.75" width="170" height="132.5" as="geometry" />
        </mxCell>
        <mxCell id="nJjuqN-97N6K5tzZ3BX6-28" value="" style="edgeStyle=orthogonalEdgeStyle;rounded=0;orthogonalLoop=1;jettySize=auto;html=1;" edge="1" parent="1" source="nJjuqN-97N6K5tzZ3BX6-16" target="nJjuqN-97N6K5tzZ3BX6-25">
          <mxGeometry relative="1" as="geometry" />
        </mxCell>
        <mxCell id="nJjuqN-97N6K5tzZ3BX6-30" style="edgeStyle=orthogonalEdgeStyle;rounded=0;orthogonalLoop=1;jettySize=auto;html=1;exitX=1;exitY=0.5;exitDx=0;exitDy=0;entryX=0;entryY=0.5;entryDx=0;entryDy=0;" edge="1" parent="1" source="nJjuqN-97N6K5tzZ3BX6-16" target="nJjuqN-97N6K5tzZ3BX6-29">
          <mxGeometry relative="1" as="geometry" />
        </mxCell>
        <mxCell id="nJjuqN-97N6K5tzZ3BX6-16" value="" style="rhombus;whiteSpace=wrap;html=1;fillColor=#CC0066;" vertex="1" parent="1">
          <mxGeometry x="840" y="228.75" width="170" height="132.5" as="geometry" />
        </mxCell>
        <mxCell id="nJjuqN-97N6K5tzZ3BX6-18" value="" style="rounded=1;whiteSpace=wrap;html=1;fillColor=#CC0066;" vertex="1" parent="1">
          <mxGeometry x="645" y="392" width="140" height="60" as="geometry" />
        </mxCell>
        <mxCell id="nJjuqN-97N6K5tzZ3BX6-23" value="" style="edgeStyle=orthogonalEdgeStyle;rounded=0;orthogonalLoop=1;jettySize=auto;html=1;" edge="1" parent="1" source="nJjuqN-97N6K5tzZ3BX6-21" target="nJjuqN-97N6K5tzZ3BX6-18">
          <mxGeometry relative="1" as="geometry" />
        </mxCell>
        <mxCell id="nJjuqN-97N6K5tzZ3BX6-35" style="edgeStyle=orthogonalEdgeStyle;rounded=0;orthogonalLoop=1;jettySize=auto;html=1;exitX=0.5;exitY=1;exitDx=0;exitDy=0;entryX=0.5;entryY=0;entryDx=0;entryDy=0;" edge="1" parent="1" source="nJjuqN-97N6K5tzZ3BX6-21" target="nJjuqN-97N6K5tzZ3BX6-34">
          <mxGeometry relative="1" as="geometry" />
        </mxCell>
        <mxCell id="nJjuqN-97N6K5tzZ3BX6-21" value="" style="rhombus;whiteSpace=wrap;html=1;fillColor=#CC0066;" vertex="1" parent="1">
          <mxGeometry x="630" y="535.75" width="170" height="132.5" as="geometry" />
        </mxCell>
        <mxCell id="nJjuqN-97N6K5tzZ3BX6-24" value="" style="rounded=1;whiteSpace=wrap;html=1;fillColor=#CC0066;" vertex="1" parent="1">
          <mxGeometry x="855" y="-60" width="140" height="60" as="geometry" />
        </mxCell>
        <mxCell id="nJjuqN-97N6K5tzZ3BX6-27" value="" style="edgeStyle=orthogonalEdgeStyle;rounded=0;orthogonalLoop=1;jettySize=auto;html=1;" edge="1" parent="1" source="nJjuqN-97N6K5tzZ3BX6-25" target="nJjuqN-97N6K5tzZ3BX6-24">
          <mxGeometry relative="1" as="geometry" />
        </mxCell>
        <mxCell id="nJjuqN-97N6K5tzZ3BX6-25" value="" style="rounded=0;whiteSpace=wrap;html=1;fillColor=#007FFF;" vertex="1" parent="1">
          <mxGeometry x="835" y="60" width="180" height="70" as="geometry" />
        </mxCell>
        <mxCell id="nJjuqN-97N6K5tzZ3BX6-33" style="edgeStyle=orthogonalEdgeStyle;rounded=0;orthogonalLoop=1;jettySize=auto;html=1;exitX=0.5;exitY=1;exitDx=0;exitDy=0;" edge="1" parent="1" source="nJjuqN-97N6K5tzZ3BX6-29" target="nJjuqN-97N6K5tzZ3BX6-31">
          <mxGeometry relative="1" as="geometry" />
        </mxCell>
        <mxCell id="nJjuqN-97N6K5tzZ3BX6-29" value="" style="rounded=0;whiteSpace=wrap;html=1;fillColor=#007FFF;" vertex="1" parent="1">
          <mxGeometry x="1160" y="260" width="180" height="70" as="geometry" />
        </mxCell>
        <mxCell id="nJjuqN-97N6K5tzZ3BX6-32" style="edgeStyle=orthogonalEdgeStyle;rounded=0;orthogonalLoop=1;jettySize=auto;html=1;entryX=1;entryY=0.5;entryDx=0;entryDy=0;" edge="1" parent="1" source="nJjuqN-97N6K5tzZ3BX6-31" target="nJjuqN-97N6K5tzZ3BX6-18">
          <mxGeometry relative="1" as="geometry" />
        </mxCell>
        <mxCell id="nJjuqN-97N6K5tzZ3BX6-31" value="" style="rounded=0;whiteSpace=wrap;html=1;fillColor=#007FFF;" vertex="1" parent="1">
          <mxGeometry x="1160" y="387" width="180" height="70" as="geometry" />
        </mxCell>
        <mxCell id="nJjuqN-97N6K5tzZ3BX6-38" style="edgeStyle=orthogonalEdgeStyle;rounded=0;orthogonalLoop=1;jettySize=auto;html=1;exitX=0.5;exitY=1;exitDx=0;exitDy=0;" edge="1" parent="1" source="nJjuqN-97N6K5tzZ3BX6-34" target="nJjuqN-97N6K5tzZ3BX6-36">
          <mxGeometry relative="1" as="geometry" />
        </mxCell>
        <mxCell id="nJjuqN-97N6K5tzZ3BX6-34" value="" style="rounded=0;whiteSpace=wrap;html=1;fillColor=#007FFF;" vertex="1" parent="1">
          <mxGeometry x="625" y="720" width="180" height="70" as="geometry" />
        </mxCell>
        <mxCell id="nJjuqN-97N6K5tzZ3BX6-40" value="" style="edgeStyle=orthogonalEdgeStyle;rounded=0;orthogonalLoop=1;jettySize=auto;html=1;" edge="1" parent="1" source="nJjuqN-97N6K5tzZ3BX6-36" target="nJjuqN-97N6K5tzZ3BX6-39">
          <mxGeometry relative="1" as="geometry" />
        </mxCell>
        <mxCell id="nJjuqN-97N6K5tzZ3BX6-42" value="" style="edgeStyle=orthogonalEdgeStyle;rounded=0;orthogonalLoop=1;jettySize=auto;html=1;" edge="1" parent="1" source="nJjuqN-97N6K5tzZ3BX6-36" target="nJjuqN-97N6K5tzZ3BX6-41">
          <mxGeometry relative="1" as="geometry" />
        </mxCell>
        <mxCell id="nJjuqN-97N6K5tzZ3BX6-36" value="" style="rhombus;whiteSpace=wrap;html=1;fillColor=#CC0066;" vertex="1" parent="1">
          <mxGeometry x="630" y="820" width="170" height="132.5" as="geometry" />
        </mxCell>
        <mxCell id="nJjuqN-97N6K5tzZ3BX6-44" style="edgeStyle=orthogonalEdgeStyle;rounded=0;orthogonalLoop=1;jettySize=auto;html=1;exitX=0.5;exitY=1;exitDx=0;exitDy=0;" edge="1" parent="1" source="nJjuqN-97N6K5tzZ3BX6-39" target="nJjuqN-97N6K5tzZ3BX6-43">
          <mxGeometry relative="1" as="geometry" />
        </mxCell>
        <mxCell id="nJjuqN-97N6K5tzZ3BX6-39" value="" style="rounded=0;whiteSpace=wrap;html=1;fillColor=#007FFF;" vertex="1" parent="1">
          <mxGeometry x="880" y="841" width="190" height="90" as="geometry" />
        </mxCell>
        <mxCell id="nJjuqN-97N6K5tzZ3BX6-46" style="edgeStyle=orthogonalEdgeStyle;rounded=0;orthogonalLoop=1;jettySize=auto;html=1;entryX=0;entryY=0.5;entryDx=0;entryDy=0;" edge="1" parent="1" source="nJjuqN-97N6K5tzZ3BX6-41" target="nJjuqN-97N6K5tzZ3BX6-43">
          <mxGeometry relative="1" as="geometry" />
        </mxCell>
        <mxCell id="nJjuqN-97N6K5tzZ3BX6-41" value="" style="rounded=0;whiteSpace=wrap;html=1;fillColor=#007FFF;" vertex="1" parent="1">
          <mxGeometry x="620" y="1000" width="190" height="90" as="geometry" />
        </mxCell>
        <mxCell id="nJjuqN-97N6K5tzZ3BX6-43" value="" style="rounded=1;whiteSpace=wrap;html=1;fillColor=#CC0066;" vertex="1" parent="1">
          <mxGeometry x="905" y="1015" width="140" height="60" as="geometry" />
        </mxCell>
        <mxCell id="nJjuqN-97N6K5tzZ3BX6-50" value="" style="edgeStyle=orthogonalEdgeStyle;rounded=0;orthogonalLoop=1;jettySize=auto;html=1;" edge="1" parent="1" source="nJjuqN-97N6K5tzZ3BX6-47" target="nJjuqN-97N6K5tzZ3BX6-49">
          <mxGeometry relative="1" as="geometry" />
        </mxCell>
        <mxCell id="nJjuqN-97N6K5tzZ3BX6-47" value="" style="rounded=0;whiteSpace=wrap;html=1;fillColor=#007FFF;" vertex="1" parent="1">
          <mxGeometry x="395" y="720" width="210" height="110" as="geometry" />
        </mxCell>
        <mxCell id="nJjuqN-97N6K5tzZ3BX6-52" value="" style="edgeStyle=orthogonalEdgeStyle;rounded=0;orthogonalLoop=1;jettySize=auto;html=1;" edge="1" parent="1" source="nJjuqN-97N6K5tzZ3BX6-49" target="nJjuqN-97N6K5tzZ3BX6-51">
          <mxGeometry relative="1" as="geometry" />
        </mxCell>
        <mxCell id="nJjuqN-97N6K5tzZ3BX6-65" value="" style="edgeStyle=orthogonalEdgeStyle;rounded=0;orthogonalLoop=1;jettySize=auto;html=1;" edge="1" parent="1" source="nJjuqN-97N6K5tzZ3BX6-49" target="nJjuqN-97N6K5tzZ3BX6-64">
          <mxGeometry relative="1" as="geometry" />
        </mxCell>
        <mxCell id="nJjuqN-97N6K5tzZ3BX6-49" value="" style="rhombus;whiteSpace=wrap;html=1;fillColor=#CC0066;" vertex="1" parent="1">
          <mxGeometry x="415" y="867.5" width="170" height="132.5" as="geometry" />
        </mxCell>
        <mxCell id="nJjuqN-97N6K5tzZ3BX6-54" style="edgeStyle=orthogonalEdgeStyle;rounded=0;orthogonalLoop=1;jettySize=auto;html=1;exitX=0.5;exitY=1;exitDx=0;exitDy=0;entryX=0.5;entryY=0;entryDx=0;entryDy=0;" edge="1" parent="1" source="nJjuqN-97N6K5tzZ3BX6-51" target="nJjuqN-97N6K5tzZ3BX6-53">
          <mxGeometry relative="1" as="geometry" />
        </mxCell>
        <mxCell id="nJjuqN-97N6K5tzZ3BX6-57" value="" style="edgeStyle=orthogonalEdgeStyle;rounded=0;orthogonalLoop=1;jettySize=auto;html=1;" edge="1" parent="1" source="nJjuqN-97N6K5tzZ3BX6-51" target="nJjuqN-97N6K5tzZ3BX6-55">
          <mxGeometry relative="1" as="geometry" />
        </mxCell>
        <mxCell id="nJjuqN-97N6K5tzZ3BX6-51" value="" style="rhombus;whiteSpace=wrap;html=1;fillColor=#CC0066;" vertex="1" parent="1">
          <mxGeometry x="415" y="1138" width="170" height="132.5" as="geometry" />
        </mxCell>
        <mxCell id="nJjuqN-97N6K5tzZ3BX6-63" value="" style="edgeStyle=orthogonalEdgeStyle;rounded=0;orthogonalLoop=1;jettySize=auto;html=1;" edge="1" parent="1" source="nJjuqN-97N6K5tzZ3BX6-53" target="nJjuqN-97N6K5tzZ3BX6-61">
          <mxGeometry relative="1" as="geometry" />
        </mxCell>
        <mxCell id="nJjuqN-97N6K5tzZ3BX6-53" value="" style="rounded=0;whiteSpace=wrap;html=1;fillColor=#007FFF;" vertex="1" parent="1">
          <mxGeometry x="405" y="1318" width="190" height="90" as="geometry" />
        </mxCell>
        <mxCell id="nJjuqN-97N6K5tzZ3BX6-58" value="" style="edgeStyle=orthogonalEdgeStyle;rounded=0;orthogonalLoop=1;jettySize=auto;html=1;" edge="1" parent="1" source="nJjuqN-97N6K5tzZ3BX6-55" target="nJjuqN-97N6K5tzZ3BX6-56">
          <mxGeometry relative="1" as="geometry" />
        </mxCell>
        <mxCell id="nJjuqN-97N6K5tzZ3BX6-55" value="" style="rounded=0;whiteSpace=wrap;html=1;fillColor=#007FFF;" vertex="1" parent="1">
          <mxGeometry x="650" y="1159.25" width="190" height="90" as="geometry" />
        </mxCell>
        <mxCell id="nJjuqN-97N6K5tzZ3BX6-60" value="" style="edgeStyle=orthogonalEdgeStyle;rounded=0;orthogonalLoop=1;jettySize=auto;html=1;" edge="1" parent="1" source="nJjuqN-97N6K5tzZ3BX6-56" target="nJjuqN-97N6K5tzZ3BX6-59">
          <mxGeometry relative="1" as="geometry" />
        </mxCell>
        <mxCell id="nJjuqN-97N6K5tzZ3BX6-56" value="" style="rounded=0;whiteSpace=wrap;html=1;fillColor=#007FFF;" vertex="1" parent="1">
          <mxGeometry x="905" y="1159.25" width="190" height="90" as="geometry" />
        </mxCell>
        <mxCell id="nJjuqN-97N6K5tzZ3BX6-59" value="" style="rounded=1;whiteSpace=wrap;html=1;fillColor=#CC0066;" vertex="1" parent="1">
          <mxGeometry x="930" y="1333" width="140" height="60" as="geometry" />
        </mxCell>
        <mxCell id="nJjuqN-97N6K5tzZ3BX6-62" value="" style="edgeStyle=orthogonalEdgeStyle;rounded=0;orthogonalLoop=1;jettySize=auto;html=1;" edge="1" parent="1" source="nJjuqN-97N6K5tzZ3BX6-61" target="nJjuqN-97N6K5tzZ3BX6-59">
          <mxGeometry relative="1" as="geometry" />
        </mxCell>
        <mxCell id="nJjuqN-97N6K5tzZ3BX6-61" value="" style="rounded=0;whiteSpace=wrap;html=1;fillColor=#007FFF;" vertex="1" parent="1">
          <mxGeometry x="660" y="1318" width="190" height="90" as="geometry" />
        </mxCell>
        <mxCell id="nJjuqN-97N6K5tzZ3BX6-64" value="" style="rounded=1;whiteSpace=wrap;html=1;fillColor=#CC0066;" vertex="1" parent="1">
          <mxGeometry x="200" y="903.75" width="140" height="60" as="geometry" />
        </mxCell>
        <mxCell id="nJjuqN-97N6K5tzZ3BX6-67" value="" style="edgeStyle=orthogonalEdgeStyle;rounded=0;orthogonalLoop=1;jettySize=auto;html=1;" edge="1" parent="1" source="nJjuqN-97N6K5tzZ3BX6-66" target="nJjuqN-97N6K5tzZ3BX6-64">
          <mxGeometry relative="1" as="geometry" />
        </mxCell>
        <mxCell id="nJjuqN-97N6K5tzZ3BX6-69" value="" style="edgeStyle=orthogonalEdgeStyle;rounded=0;orthogonalLoop=1;jettySize=auto;html=1;" edge="1" parent="1" source="nJjuqN-97N6K5tzZ3BX6-66" target="nJjuqN-97N6K5tzZ3BX6-68">
          <mxGeometry relative="1" as="geometry" />
        </mxCell>
        <mxCell id="nJjuqN-97N6K5tzZ3BX6-66" value="" style="rhombus;whiteSpace=wrap;html=1;fillColor=#CC0066;" vertex="1" parent="1">
          <mxGeometry x="-10" y="867.5" width="170" height="132.5" as="geometry" />
        </mxCell>
        <mxCell id="nJjuqN-97N6K5tzZ3BX6-71" value="" style="edgeStyle=orthogonalEdgeStyle;rounded=0;orthogonalLoop=1;jettySize=auto;html=1;" edge="1" parent="1" source="nJjuqN-97N6K5tzZ3BX6-68" target="nJjuqN-97N6K5tzZ3BX6-70">
          <mxGeometry relative="1" as="geometry" />
        </mxCell>
        <mxCell id="nJjuqN-97N6K5tzZ3BX6-68" value="" style="rounded=0;whiteSpace=wrap;html=1;fillColor=#007FFF;" vertex="1" parent="1">
          <mxGeometry x="-20" y="1048" width="190" height="90" as="geometry" />
        </mxCell>
        <mxCell id="nJjuqN-97N6K5tzZ3BX6-72" style="edgeStyle=orthogonalEdgeStyle;rounded=0;orthogonalLoop=1;jettySize=auto;html=1;" edge="1" parent="1" source="nJjuqN-97N6K5tzZ3BX6-70">
          <mxGeometry relative="1" as="geometry">
            <mxPoint x="270" y="970" as="targetPoint" />
          </mxGeometry>
        </mxCell>
        <mxCell id="nJjuqN-97N6K5tzZ3BX6-70" value="" style="rounded=0;whiteSpace=wrap;html=1;fillColor=#007FFF;" vertex="1" parent="1">
          <mxGeometry x="-20" y="1220" width="190" height="90" as="geometry" />
        </mxCell>
      </root>
    </mxGraphModel>
  </diagram>
</mxfile>
